<svg width="106" height="36" viewBox="0 0 106 36" fill="none" xmlns="http://www.w3.org/2000/svg">
<g clip-path="url(#clip0_396_1544)">
<path d="M81.5535 0.642753H80.8494C78.9877 0.642753 78.4855 1.10263 78.2338 2.99546L74.3097 26.8131C74.0383 28.1661 73.6175 29.751 73.0616 30.3188C73.0091 30.3548 72.9541 30.3882 72.9239 30.4028C72.7325 30.4895 72.5253 30.5095 72.3287 30.4735C71.2588 30.0429 70.7541 27.4183 70.6085 26.4892L67.829 6.89042C67.0752 2.13569 65.8178 0.600098 62.0471 0.600098H62.0445C58.2752 0.600098 57.0178 2.13569 56.2626 6.89175L53.4831 26.4905C53.3376 27.4196 52.8341 30.0442 51.763 30.4748C51.565 30.5108 51.3592 30.4908 51.1677 30.4042C51.1363 30.3908 51.0825 30.3562 51.0301 30.3202C50.4742 29.751 50.0533 28.1674 49.7819 26.8144L45.8578 2.99679C45.6061 1.10396 45.1027 0.644086 43.2422 0.644086H42.5382C41.0239 0.644086 40.5086 0.949338 40.5047 2.08104C40.5034 2.3423 40.5296 2.64755 40.5768 3.00346L44.354 26.4265C44.7565 29.1218 45.7766 33.8406 48.0605 34.7817C48.8157 35.2162 49.7964 35.4015 51.2333 35.4015C53.5474 35.4015 55.1574 34.7883 56.1132 33.6113C57.069 32.4343 57.773 30.3895 58.1755 27.4729L60.8409 7.30764C61.0914 5.62143 61.2933 5.21087 62.0458 5.21087C62.7997 5.21087 63.0003 5.62143 63.2507 7.30764L65.9162 27.4729C66.3187 30.3882 67.0227 32.4343 67.9785 33.6113C68.9343 34.7883 70.5443 35.4015 72.8584 35.4015C74.2953 35.4015 75.276 35.2162 76.0312 34.7817C78.3151 33.8406 79.3351 29.1218 79.7376 26.4265L83.5149 3.00346C83.5621 2.64755 83.5883 2.3423 83.587 2.08104C83.583 0.949338 83.0665 0.644086 81.5535 0.644086V0.642753Z" fill="white"/>
<path d="M104.108 30.3198C101.647 30.2958 99.185 30.3331 96.7241 30.3011C93.7977 30.2638 92.5011 29.8386 92.0999 27.7392C92.0828 27.6032 92.0684 27.4646 92.0566 27.3206C91.856 24.8093 92.0133 23.0671 92.0133 20.4891C92.2677 20.4105 92.3555 20.3598 92.4434 20.3585C95.7408 20.3478 98.6382 20.3398 101.936 20.3331C104.022 20.3291 104.529 19.2761 104.555 17.6672C104.583 15.989 104.086 15.1185 101.883 15.1172C98.9568 15.1145 96.4304 15.1199 93.5053 15.1132C93.0137 15.1132 92.522 15.0625 91.9543 15.0319C91.9543 13.0911 91.9452 11.8807 91.957 10.0972C91.9806 6.42352 93.1042 5.78635 96.7267 5.7397C99.1876 5.70771 101.65 5.74636 104.111 5.72104C105.532 5.70771 105.983 4.57601 106.003 3.12973C106.024 1.53682 105.625 0.590407 104.13 0.590407C101.114 0.590407 98.0876 0.54242 95.0813 0.745032C89.9995 1.08627 87.0823 4.20011 87.0142 9.32541C86.9368 15.1545 86.9421 20.9876 87.0142 26.8167C87.0601 30.5891 88.5206 33.2297 91.4627 34.476C92.5037 34.9546 93.7138 35.2478 95.0826 35.3398C98.0404 35.5384 101.017 35.4944 103.985 35.4944C104.045 35.4944 104.107 35.4958 104.167 35.4971V35.4931C105.633 35.4784 106.025 34.5333 106.004 32.9551C105.986 31.5102 105.533 30.3345 104.112 30.3198H104.108Z" fill="white"/>
<path d="M0.00130992 18.3192C0.00130992 13.3792 -0.00393443 7.89799 0.00393209 2.95798C0.00655426 0.966509 0.403813 0.539956 2.32193 0.543955C6.00346 0.55062 9.69417 0.427986 13.3639 0.646595C20.5631 1.07448 23.8552 4.19631 24.3508 11.4597C24.6641 16.0438 24.575 20.9278 24.2249 25.512C23.7674 31.5184 20.2445 34.9174 14.2895 35.2734C10.0691 35.5266 5.82384 35.368 1.59035 35.372C0.294993 35.3733 0.002621 34.4802 0.00130992 33.3899C-0.00131226 29.7082 -1.17009e-06 26.3344 -0.00131226 22.6527C-0.00131226 21.2078 -0.00131226 19.7642 -0.00131226 18.3192H0.00130992ZM4.92706 5.99583V29.9095C4.92706 30.0854 5.06735 30.2294 5.24172 30.2294C8.21657 30.2427 10.9646 30.444 13.8516 30.1707C17.4794 29.8281 19.4172 27.6501 19.5247 23.987C19.6597 19.3869 19.6637 16.5144 19.5194 11.9143C19.4041 8.2419 17.2906 5.9945 13.6694 5.72124C10.8505 5.50796 8.18904 5.66526 5.24172 5.67592C5.06866 5.67592 4.92706 5.81988 4.92706 5.99583Z" fill="white"/>
<path d="M30.2861 17.9555C30.2861 12.9301 30.2835 7.9048 30.2874 2.87948C30.29 0.908003 30.9062 0.492114 32.8348 0.500112C34.6782 0.50811 35.3089 0.959989 35.3102 2.8075C35.3167 12.9515 35.3167 23.0967 35.3102 33.2407C35.3102 35.0416 34.7031 35.4321 32.7693 35.4308C30.8302 35.4281 30.2913 35.1002 30.2887 33.1714C30.2835 28.0994 30.2874 23.0274 30.2874 17.9541L30.2861 17.9555Z" fill="white"/>
</g>
<defs>
<clipPath id="clip0_396_1544">
<rect width="106" height="35" fill="white" transform="translate(0 0.5)"/>
</clipPath>
</defs>
</svg>
