
<svg id="Grupo_60" data-name="Grupo 60" xmlns="http://www.w3.org/2000/svg" xmlns:xlink="http://www.w3.org/1999/xlink" width="76" height="24.682" viewBox="0 0 76 24.682">
  <defs>
    <clipPath id="clip-path">
      <rect id="Retângulo_81" data-name="Retângulo 81" width="76" height="24.682" fill="#226"/>
    </clipPath>
  </defs>
  <g id="Grupo_43" data-name="Grupo 43" clip-path="url(#clip-path)">
    <path id="Caminho_38" data-name="Caminho 38" d="M268.371.608h-.505c-1.334,0-1.695.325-1.875,1.659l-2.813,16.8a6.047,6.047,0,0,1-.895,2.473.82.82,0,0,1-.1.059.731.731,0,0,1-.427.05c-.768-.3-1.129-2.155-1.233-2.81L258.531,5.014C257.99,1.66,257.089.578,254.386.577h0c-2.7,0-3.6,1.083-4.145,4.437l-1.993,13.821c-.1.655-.466,2.506-1.233,2.81a.73.73,0,0,1-.427-.05.817.817,0,0,1-.1-.059,6.048,6.048,0,0,1-.895-2.473l-2.813-16.8C242.6.932,242.237.608,240.9.608H240.4c-1.085,0-1.455.215-1.458,1.013a4.739,4.739,0,0,0,.052.65L241.7,18.789c.289,1.9,1.02,5.229,2.657,5.892a4.536,4.536,0,0,0,2.275.437,4.3,4.3,0,0,0,3.5-1.263,8.935,8.935,0,0,0,1.479-4.329L253.52,5.307c.18-1.19.324-1.479.864-1.479s.684.289.864,1.479l1.912,14.221a8.935,8.935,0,0,0,1.479,4.329,4.3,4.3,0,0,0,3.5,1.263,4.537,4.537,0,0,0,2.275-.437c1.638-.663,2.369-3.992,2.657-5.892l2.708-16.518a4.778,4.778,0,0,0,.052-.65c0-.8-.373-1.013-1.458-1.013" transform="translate(-209.899 -0.507)" fill="#226"/>
    <path id="Caminho_39" data-name="Caminho 39" d="M525.251,21.477c-1.765-.017-3.53.01-5.294-.013-2.1-.027-3.027-.326-3.316-1.806-.012-.1-.023-.194-.031-.3-.144-1.771-.031-3-.031-4.817a1.646,1.646,0,0,1,.308-.092c2.364-.008,4.442-.013,6.806-.018,1.5,0,1.859-.745,1.878-1.88.019-1.183-.337-1.8-1.916-1.8-2.1,0-3.909,0-6.007,0-.353,0-.7-.036-1.112-.058,0-1.369-.007-2.223,0-3.48.017-2.59.823-3.04,3.42-3.073,1.765-.022,3.53,0,5.294-.013,1.019-.01,1.343-.808,1.356-1.827.015-1.123-.271-1.791-1.343-1.791-2.163,0-4.332-.034-6.488.109-3.644.241-5.735,2.437-5.784,6.051q-.083,6.167,0,12.335c.033,2.661,1.08,4.523,3.189,5.4a7.464,7.464,0,0,0,2.6.609c2.121.14,4.255.109,6.383.109l.131,0v0c1.051-.011,1.332-.676,1.317-1.79-.014-1.019-.337-1.849-1.356-1.858" transform="translate(-450.607 -0.448)" fill="#226"/>
    <path id="Caminho_40" data-name="Caminho 40" d="M0,12.644C0,9.16,0,5.294,0,1.811c0-1.4.286-1.705,1.662-1.7C4.3.112,6.95.027,9.582.18c5.162.3,7.522,2.5,7.878,7.626a69.04,69.04,0,0,1-.09,9.91c-.328,4.236-2.854,6.633-7.123,6.884-3.026.178-6.069.066-9.1.07-.929,0-1.138-.629-1.139-1.4,0-2.6,0-4.976,0-7.572q0-1.528,0-3.056M3.533,3.953V20.817a.226.226,0,0,0,.225.226c2.133.01,4.1.151,6.174-.041A4.088,4.088,0,0,0,14,16.641c.1-3.244.1-5.27,0-8.514A4.17,4.17,0,0,0,9.8,3.759c-2.021-.151-3.929-.04-6.042-.032a.226.226,0,0,0-.225.226" transform="translate(0 -0.077)" fill="#226"/>
    <path id="Caminho_41" data-name="Caminho 41" d="M178.657,12.31q0-5.316,0-10.632c0-1.39.443-1.684,1.826-1.678,1.322.006,1.774.325,1.775,1.627q.007,10.731,0,21.462c0,1.27-.435,1.546-1.822,1.544s-1.777-.233-1.778-1.593q-.006-5.366,0-10.731" transform="translate(-156.942 0)" fill="#226"/>
  </g>
</svg>
